# AST/ASF file generated using VICON BodyLanguage
# -----------------------------------------------
:version 1.10
:name VICON
:units
  mass 1.0
  length 0.45
  angle deg
:documentation
   .ast/.asf automatically generated from VICON data using
   VICON BodyBuilder and BodyLanguage model FoxedUp or BRILLIANT.MOD
:root
   order TX TY TZ RX RY RZ
   axis XYZ
   position 0 0 0  
   orientation 0 0 0 
:bonedata
  begin
     id 1 
     name lhipjoint
     direction 0.623529 -0.717805 0.309788 
     length 2.23224 
     axis 0 0 0  XYZ
  end
  begin
     id 2 
     name lfemur
     direction 0.34202 -0.939693 0  
     length 7.11402  
     axis 0 0 20  XYZ
    dof rx ry rz
    limits (-160.0 20.0)
           (-70.0 70.0)
           (-60.0 70.0)
  end
  begin
     id 3 
     name ltibia
     direction 0.34202 -0.939693 0   
     length 6.78496   
     axis 0 0 20   XYZ
    dof rx
    limits (-10.0 170.0)
  end
  begin
     id 4 
     name lfoot
     direction 0.125078 -0.343648 0.930732   
     length 1.84054   
     axis -90 7.62852e-016 20   XYZ
    dof rx rz
    limits (-45.0 90.0)
           (-70.0 20.0)
  end
  begin
     id 5 
     name ltoes
     direction 1.53565e-011 -4.21893e-011 1   
     length 0.916474   
     axis -90 7.62852e-016 20   XYZ
    dof rx
    limits (-90.0 20.0)
  end
  begin
     id 6 
     name rhipjoint
     direction -0.564688 -0.757748 0.327026   
     length 2.11457  
     axis 0 0 0  XYZ 
  end
  begin
     id 7 
     name rfemur
     direction -0.34202 -0.939693 0   
     length 7.14609   
     axis 0 0 -20   XYZ
    dof rx ry rz
    limits (-160.0 20.0)
           (-70.0 70.0)
           (-70.0 60.0)
  end
  begin
     id 8 
     name rtibia
     direction -0.34202 -0.939693 0   
     length 6.78101   
     axis 0 0 -20   XYZ
    dof rx
    limits (-10.0 170.0)
 end
 begin
     id 9 
     name rfoot
     direction -0.0992671 -0.272734 0.956955   
     length 1.96168  
     axis -90 -7.62852e-016 -20   XYZ
    dof rx rz
    limits (-45.0 90.0)
           (-20.0 70.0)
  end
  begin
     id 10 
     name rtoes
     direction -1.5356e-011 -4.21891e-011 1   
     length 0.982933   
     axis -90 -7.62852e-016 -20   XYZ
    dof rx
    limits (-90.0 20.0)
  end
  begin
     id 11 
     name lowerback
     direction -0.00596953 0.998668 0.0512524   
     length 1.87557   
     axis 0 0 0   XYZ
    dof rx ry rz
    limits (-20.0 45.0)
           (-30.0 30.0)
           (-30.0 30.0)
  end
  begin
     id 12 
     name upperback
     direction 0.00584879 0.999652 0.0257308   
     length 1.87883   
     axis 0 0 0   XYZ
    dof rx ry rz
    limits (-20.0 45.0)
           (-30.0 30.0)
           (-30.0 30.0)
  end
  begin
     id 13 
     name thorax
     direction 0.010104 0.999947 0.00178881   
     length 1.87779   
     axis 0 0 0   XYZ
    dof rx ry rz
    limits (-20.0 45.0)
           (-30.0 30.0)
           (-30.0 30.0)
  end
  begin
     id 14 
     name lowerneck
     direction 0.0120771 0.995934 -0.0892773   
     length 1.40897   
     axis 0 0 0   XYZ
    dof rx ry rz
    limits (-20.0 45.0)
           (-30.0 30.0)
           (-30.0 30.0)
  end
  begin
     id 15 
     name upperneck
     direction -0.030568 0.999465 -0.0116366   
     length 1.38661   
     axis 0 0 0   XYZ
    dof rx ry rz
    limits (-20.0 45.0)
           (-30.0 30.0)
           (-30.0 30.0)
  end
  begin
     id 16
     name head
     direction -0.0170715 0.999854 -0.00104426  
     length 1.47052  
     axis 0 0 0   XYZ
    dof rx ry rz
    limits (-20.0 45.0)
           (-30.0 30.0)
           (-30.0 30.0)
  end
  begin
     id 17 
     name lclavicle
     direction 0.977763 0.206143 0.038532  
     length 3.02424  
     axis 0 0 0   XYZ
    dof ry rz
    limits (-20.0 10.0)
           (0.0 20.0)
  end
  begin
     id 18 
     name lhumerus
     direction 1 -4.48965e-011 -2.62654e-027   
     length 4.68382   
     axis 180 -30 -90   XYZ
    dof rx ry rz
    limits (-60.0 90.0)
           (-90.0 90.0)
           (-90.0 90.0)
  end
  begin
     id 19
     name lradius
     direction 1 -4.48973e-011 -1.54954e-027   
     length 2.98124   
     axis 180 -30 -90   XYZ
    dof rx
    limits (-10.0 170.0)
  end
  begin
     id 20
     name lwrist
     direction 1 -4.48959e-011 7.20928e-028   
     length 1.49062   
     axis -5.52449e-016 90 90   XYZ
    dof ry
    limits (-180.0 0.0)
 end
  begin
     id 21 
     name lhand
     direction 1 -4.48971e-011 1.44186e-027   
     length 0.707595   
     axis -9.20027e-016 90 90   XYZ
    dof rx rz
    limits (-90.0 90.0)
           (-45.0 45.0)
  end
  begin
     id 22 
     name lfingers
     direction 1 -4.48985e-011 2.88371e-027   
     length 0.570481   
     axis -1.84005e-015 90 90   XYZ
    dof rx
    limits (0.0 90.0)
  end
  begin
     id 23
     name lthumb
     direction 0.707107 -6.34929e-011 0.707107   
     length 0.819101   
     axis -90 45 2.85299e-015   XYZ
    dof rx rz
    limits (-45.0 45.0)
           (-45.0 45.0)
  end
  begin
     id 24 
     name rclavicle
     direction -0.958661 0.284411 -0.00895327   
     length 3.11921  
     axis 0 0 0   XYZ 
    dof ry rz
    limits (-10.0 20.0)
           (-20.0 0.0)
  end
  begin
     id 25 
     name rhumerus
     direction -1 -4.48963e-011 -4.22193e-027  
     length 4.75876   
     axis 180 30 90   XYZ
    dof rx ry rz
    limits (-90.0 60.0)
           (-90.0 90.0)
           (-90.0 90.0)
  end
  begin
     id 26 
     name rradius
     direction -1 -4.48968e-011 -1.07616e-027   
     length 2.93293   
     axis 180 30 90   XYZ
    dof rx
    limits (-10.0 170.0)
  end
  begin
     id 27 
     name rwrist
     direction -1 -4.48965e-011 7.20928e-028   
     length 1.46647   
     axis -5.52449e-016 -90 -90   XYZ
    dof ry
    limits (-180.0 0.0)
  end
  begin
     id 28
     name rhand
     direction -1 -4.48971e-011 1.44186e-027   
     length 0.831748   
     axis -9.20027e-016 -90 -90   XYZ
    dof rx rz
    limits (-90.0 90.0)
           (-45.0 45.0)
  end
  begin
     id 29
     name rfingers
     direction -1 -4.48961e-011 2.88371e-027   
     length 0.670577   
     axis -1.84005e-015 -90 -90   XYZ
    dof rx
    limits (0.0 90.0)
  end
  begin
     id 30
     name rthumb
     direction -0.707107 -6.34929e-011 0.707107   
     length 0.962818   
     axis -90 -45 -2.85299e-015   XYZ
    dof rx rz
    limits (-45.0 45.0)
           (-45.0 45.0)
  end
:hierarchy
  begin
    root lhipjoint rhipjoint lowerback
    lhipjoint lfemur
    lfemur ltibia
    ltibia lfoot
    lfoot ltoes
    rhipjoint rfemur
    rfemur rtibia
    rtibia rfoot
    rfoot rtoes
    lowerback upperback
    upperback thorax
    thorax lowerneck lclavicle rclavicle
    lowerneck upperneck
    upperneck head
    lclavicle lhumerus
    lhumerus lradius
    lradius lwrist
    lwrist lhand lthumb
    lhand lfingers
    rclavicle rhumerus
    rhumerus rradius
    rradius rwrist
    rwrist rhand rthumb
    rhand rfingers
  end

#!OML:ASF E:\id_vita\Project 1\Capture day 1\Session 1\Female.ASF
:FULLY-SPECIFIED
:DEGREES
317
root 34.0372 16.8283 -10.7057 -168.487 69.6018 173.721
lowerback -20.9617 0.89984 -6.63205
upperback -7.30668 3.24054 -0.798016
thorax 3.44195 1.95986 3.67814
lowerneck 10.4963 1.14072 -2.93745
upperneck -12.7688 1.89412 5.02143
head -5.65407 0.740943 1.90715
rclavicle -7.47927e-015 -4.17448e-015
rhumerus 56.0424 5.97382 -29.1251
rradius 60.1886
rwrist -1.86398
rhand 3.51183 1.54333
rfingers 7.12502
rthumb 28.9495 -26.2291
lclavicle -7.47927e-015 -4.17448e-015
lhumerus 55.5276 -5.62756 40.7197
lradius 55.2824
lwrist -10.1009
lhand -11.3266 31.7061
lfingers 7.12502
lthumb 14.7058 61.1645
rfemur 1.03421 5.4938 16.4073
rtibia 20.1526
rfoot 6.36333 6.66874
rtoes -9.0429
lfemur -27.2595 -9.23369 -23.9097
ltibia 24.1251
lfoot -15.6261 0.630773
ltoes 9.65145
318
root 34.0578 16.826 -10.7375 -168.153 69.5675 174.133
lowerback -20.6923 1.01212 -6.3079
upperback -7.38496 3.29934 -0.793602
thorax 3.23367 1.9956 3.49647
lowerneck 9.76887 1.28413 -3.61673
upperneck -11.755 2.05183 5.77061
head -5.23508 0.812668 2.23989
rclavicle -3.52346e-014 -7.35503e-015
rhumerus 56.0147 5.79447 -28.7578
rradius 60.5084
rwrist -2.19416
rhand 3.8958 1.14236
rfingers 7.12502
rthumb 29.3162 -26.5666
lclavicle -3.52346e-014 -7.35503e-015
lhumerus 56.3793 -5.47006 40.4399
lradius 54.7229
lwrist -9.09494
lhand -8.9582 30.066
lfingers 7.12502
lthumb 16.9867 59.3432
rfemur 1.19988 5.36668 16.4658
rtibia 20.1047
rfoot 6.65077 6.84659
rtoes -8.30075
lfemur -27.0737 -9.35973 -23.8378
ltibia 24.18
lfoot -15.7536 0.751995
ltoes 10.0301
319
root 34.1009 16.8165 -10.7585 -168.143 69.7095 174.127
lowerback -20.8138 1.06015 -6.39607
upperback -7.43716 3.39541 -0.802288
thorax 3.22451 2.04918 3.56212
lowerneck 9.78536 1.14975 -3.51453
upperneck -11.481 1.84658 5.63237
head -5.14086 0.715916 2.19381
rclavicle 6.22941e-014 5.36719e-015
rhumerus 55.923 5.61693 -28.5376
rradius 60.6076
rwrist -2.84651
rhand 4.44573 1.11343
rfingers 7.12502
rthumb 29.8412 -26.5025
lclavicle 6.22941e-014 5.36719e-015
lhumerus 56.8508 -5.50018 39.9564
lradius 54.4832
lwrist -9.33363
lhand -7.81603 30.3435
lfingers 7.12502
lthumb 18.0858 59.5226
rfemur 1.3739 5.77061 16.5255
rtibia 19.9826
rfoot 7.00512 6.55562
rtoes -8.45495
lfemur -26.9664 -9.35277 -23.8341
ltibia 24.2543
lfoot -15.9254 0.8815
ltoes 10.4564
320
root 34.1253 16.8116 -10.7841 -167.839 69.8087 174.473
lowerback -20.6694 1.11471 -6.19797
upperback -7.47113 3.41218 -0.774362
thorax 3.12329 2.05926 3.47509
lowerneck 10.0386 1.0942 -3.56583
upperneck -11.6349 1.76355 5.6373
head -5.22782 0.671867 2.21043
rclavicle 3.13086e-014 -6.75868e-015
rhumerus 56.1282 5.40324 -28.4372
rradius 60.5421
rwrist -3.50197
rhand 5.11296 1.18412
rfingers 7.12502
rthumb 30.4777 -26.3156
lclavicle 3.13086e-014 -6.75868e-015
lhumerus 57.2556 -5.18993 39.5314
lradius 54.3748
lwrist -8.78208
lhand -7.38171 30.8184
lfingers 7.12502
lthumb 18.5037 59.9583
rfemur 1.49042 5.73474 16.5322
rtibia 19.8974
rfoot 7.28874 6.95777
rtoes -9.19244
lfemur -26.8519 -9.30055 -23.8003
ltibia 24.3215
lfoot -16.0817 0.917661
ltoes 10.8536
321
root 34.1764 16.8093 -10.7972 -167.713 69.7043 174.546
lowerback -20.8886 0.913361 -6.4288
upperback -7.46101 3.21112 -0.67648
thorax 3.24566 1.96122 3.67801
lowerneck 9.90889 1.29106 -3.33311
upperneck -11.1714 2.04549 5.65148
head -5.07435 0.802441 2.15364
rclavicle -4.77083e-015 5.96354e-016
rhumerus 56.4762 5.3693 -28.4601
rradius 60.3494
rwrist -3.80302
rhand 5.62747 1.02017
rfingers 7.12502
rthumb 30.9683 -26.3873
lclavicle -4.77083e-015 5.96354e-016
lhumerus 57.4792 -5.01374 38.6832
lradius 54.2198
lwrist -8.35481
lhand -7.50252 31.7069
lfingers 7.12502
lthumb 18.3875 60.8578
rfemur 1.54449 6.27161 16.7603
rtibia 19.89
rfoot 7.88964 6.64719
rtoes -9.53568
lfemur -26.7984 -9.16097 -23.7429
ltibia 24.3577
lfoot -16.3194 0.645069
ltoes 11.2948
322
root 34.1918 16.8082 -10.8274 -167.55 69.5263 174.377
lowerback -21.0901 0.729359 -6.30783
upperback -7.58592 2.97875 -0.704126
thorax 3.24688 1.85637 3.53469
lowerneck 10.0408 1.44344 -3.39228
upperneck -11.1447 2.25093 5.75551
head -5.09998 0.896297 2.18016
rclavicle -4.63168e-014 9.74045e-015
rhumerus 56.875 5.36394 -28.6505
rradius 60.2864
rwrist -4.83534
rhand 5.79649 1.57484
rfingers 7.12502
rthumb 31.1294 -25.8019
lclavicle -4.63168e-014 9.74045e-015
lhumerus 57.4889 -4.87098 37.4422
lradius 54.1406
lwrist -7.27536
lhand -7.75538 32.287
lfingers 7.12502
lthumb 18.1442 61.4607
rfemur 1.20736 5.73256 16.5112
rtibia 19.994
rfoot 8.0202 7.14689
rtoes -9.67526
lfemur -27.0044 -9.29874 -23.869
ltibia 24.3101
lfoot -16.4325 0.515896
ltoes 11.5042
323
root 34.2098 16.8063 -10.8556 -167.318 69.5035 174.36
lowerback -21.3895 0.655291 -6.19689
upperback -7.52789 2.88268 -0.669173
thorax 3.4762 1.79858 3.50393
lowerneck 9.6743 1.56559 -3.83701
upperneck -10.9072 2.40153 6.15973
head -4.98167 0.971312 2.36904
rclavicle 5.24792e-014 1.80894e-014
rhumerus 57.3744 4.97641 -28.7708
rradius 60.4657
rwrist -4.41203
rhand 6.99194 0.849623
rfingers 7.12502
rthumb 32.268 -26.3022
lclavicle 5.24792e-014 1.80894e-014
lhumerus 57.9285 -4.33525 37.4335
lradius 53.8005
lwrist -7.56557
lhand -6.7736 31.5756
lfingers 7.12502
lthumb 19.0886 60.6589
rfemur 0.919307 5.46685 16.3421
rtibia 20.1072
rfoot 8.2213 7.5754
rtoes -9.7915
lfemur -27.119 -9.43651 -23.9081
ltibia 24.1998
lfoot -16.456 0.587905
ltoes 11.5139
324
root 34.2297 16.8075 -10.8806 -167.8 69.5587 173.743
lowerback -21.4045 0.613458 -6.31611
upperback -7.48682 2.85356 -0.704358
thorax 3.52658 1.78073 3.52893
lowerneck 9.40695 1.58789 -3.87774
upperneck -10.7124 2.41542 6.10753
head -4.87706 0.988627 2.35876
rclavicle -2.73329e-014 -6.55989e-015
rhumerus 57.7832 4.54403 -28.9232
rradius 60.5134
rwrist -4.02831
rhand 8.46441 0.381691
rfingers 7.12502
rthumb 33.6685 -26.4751
lclavicle -2.73329e-014 -6.55989e-015
lhumerus 58.3653 -4.04537 36.8354
lradius 53.6806
lwrist -7.65402
lhand -6.49905 33.1378
lfingers 7.12502
lthumb 19.3526 62.1948
rfemur 0.817333 5.64478 16.0352
rtibia 20.2267
rfoot 8.58993 7.62692
rtoes -9.28757
lfemur -27.0197 -9.44687 -24.2278
ltibia 24.0817
lfoot -16.5216 0.652168
ltoes 11.196
325
root 34.2564 16.8103 -10.9039 -168.003 69.6096 173.705
lowerback -20.992 0.638807 -6.27994
upperback -7.62096 2.84814 -0.720913
thorax 3.1749 1.79522 3.46631
lowerneck 9.99407 1.47918 -3.48226
upperneck -10.8983 2.26725 5.7349
head -5.01742 0.91009 2.18667
rclavicle 7.69048e-014 1.13307e-014
rhumerus 57.9038 4.46193 -28.8983
rradius 60.5972
rwrist -4.17526
rhand 9.50969 -0.230774
rfingers 7.12502
rthumb 34.6611 -26.8653
lclavicle 7.69048e-014 1.13307e-014
lhumerus 58.4895 -4.14534 35.8004
lradius 53.7736
lwrist -7.26828
lhand -6.22845 34.1359
lfingers 7.12502
lthumb 19.6127 63.1666
rfemur 1.0275 6.07434 16.0499
rtibia 20.3396
rfoot 9.0248 7.39736
rtoes -8.24927
lfemur -26.6173 -9.30567 -24.3744
ltibia 23.9763
lfoot -16.6776 0.640868
ltoes 10.7426
326
root 34.2941 16.8118 -10.9205 -168.026 69.684 173.742
lowerback -21.1734 0.714361 -6.36334
upperback -7.53944 2.97745 -0.748652
thorax 3.33914 1.84987 3.52351
lowerneck 10.0208 1.51543 -3.47498
upperneck -10.7198 2.32913 5.90007
head -4.9718 0.93044 2.23178
rclavicle 2.63887e-014 -1.43125e-014
rhumerus 58.0857 4.08824 -28.4994
rradius 60.5085
rwrist -4.44201
rhand 9.76221 -0.900159
rfingers 7.12502
rthumb 34.9008 -27.4793
lclavicle 2.63887e-014 -1.43125e-014
lhumerus 59.1929 -4.07266 35.7068
lradius 53.5601
lwrist -7.38277
lhand -5.52424 34.0405
lfingers 7.12502
lthumb 20.2896 63.0007
rfemur 1.07976 6.25522 16.0667
rtibia 20.4618
rfoot 9.40765 7.42434
rtoes -7.05494
lfemur -26.359 -9.20029 -24.4025
ltibia 23.8342
lfoot -16.7871 0.595859
ltoes 10.7324
327
root 34.293 16.8148 -10.9527 -167.723 69.6923 173.876
lowerback -21.0899 0.81573 -5.91809
upperback -7.45669 3.00868 -0.822314
thorax 3.41334 1.84941 3.19914
lowerneck 9.38759 1.56112 -3.55668
upperneck -10.4352 2.38963 5.95244
head -4.78196 0.974067 2.25862
rclavicle 6.68413e-014 3.97569e-015
rhumerus 58.5465 3.67341 -28.4623
rradius 60.3681
rwrist -4.48424
rhand 10.1012 -1.30457
rfingers 7.12502
rthumb 35.2223 -27.8084
lclavicle 6.68413e-014 3.97569e-015
lhumerus 59.7265 -3.6197 35.4366
lradius 53.3513
lwrist -7.57796
lhand -5.16751 34.1643
lfingers 7.12502
lthumb 20.6325 63.0877
rfemur 0.777981 5.52536 15.7617
rtibia 20.593
rfoot 9.52104 8.38227
rtoes -6.18502
lfemur -26.4245 -9.30907 -24.4735
ltibia 23.7141
lfoot -16.7378 0.635852
ltoes 11.0489
328
root 34.326 16.8134 -10.9658 -167.82 69.7225 173.667
lowerback -21.1715 0.685626 -6.11791
upperback -7.39808 2.87761 -0.735117
thorax 3.51423 1.78098 3.38151
lowerneck 9.95515 1.40869 -2.71852
upperneck -11.1306 2.1772 4.80675
head -5.06048 0.892644 1.77889
rclavicle -2.34069e-014 -2.72335e-014
rhumerus 59.1509 3.46566 -28.3536
rradius 60.1216
rwrist -4.96063
rhand 10.391 -1.45179
rfingers 7.12502
rthumb 35.4971 -27.8903
lclavicle -2.34069e-014 -2.72335e-014
lhumerus 59.9471 -3.22911 35.1959
lradius 53.0484
lwrist -7.65994
lhand -5.0309 33.5684
lfingers 7.12502
lthumb 20.7637 62.4775
rfemur 0.674642 5.96447 15.7633
rtibia 20.6758
rfoot 9.88996 8.27206
rtoes -6.69255
lfemur -26.4111 -9.19822 -24.5445
ltibia 23.6536
lfoot -16.8124 0.523961
ltoes 11.3435
329
root 34.3438 16.8108 -10.9832 -168.325 69.7782 173.114
lowerback -21.0216 0.665506 -6.23592
upperback -7.57966 2.88213 -0.863678
thorax 3.24205 1.80476 3.29884
lowerneck 9.97238 1.42099 -2.93659
upperneck -10.6616 2.18075 5.15959
head -4.92479 0.88192 1.92337
rclavicle 3.22031e-014 1.59028e-015
rhumerus 59.2206 3.43694 -28.4187
rradius 60.0363
rwrist -5.96577
rhand 10.8433 -1.64462
rfingers 7.12502
rthumb 35.9258 -27.9793
lclavicle 3.22031e-014 1.59028e-015
lhumerus 60.0168 -3.46664 33.2127
lradius 53.1246
lwrist -6.77427
lhand -5.50015 34.0282
lfingers 7.12502
lthumb 20.3128 62.9859
rfemur 0.65284 5.85527 15.4472
rtibia 20.7723
rfoot 10.0103 8.53216
rtoes -6.96442
lfemur -26.2779 -9.11398 -24.8659
ltibia 23.5763
lfoot -16.9321 0.480378
ltoes 11.4899
330
root 34.3677 16.8096 -10.9996 -167.823 69.7616 173.694
lowerback -21.0136 0.64506 -6.01186
upperback -7.60888 2.80899 -0.837817
thorax 3.22442 1.76807 3.18253
lowerneck 9.92608 1.64987 -2.93859
upperneck -10.2304 2.52385 5.57819
head -4.80441 1.02864 2.02828
rclavicle -6.27414e-014 -6.95746e-015
rhumerus 59.4368 3.28373 -28.5533
rradius 60.0522
rwrist -7.15067
rhand 11.4093 -2.00876
rfingers 7.12502
rthumb 36.4617 -28.2105
lclavicle -6.27414e-014 -6.95746e-015
lhumerus 60.2503 -3.3123 32.4692
lradius 53.0416
lwrist -6.98273
lhand -5.31789 34.3969
lfingers 7.12502
lthumb 20.488 63.3359
rfemur 0.772878 5.87847 15.624
rtibia 20.7678
rfoot 10.2256 8.63783
rtoes -6.84342
lfemur -26.0839 -9.00077 -24.7634
ltibia 23.5094
lfoot -17.0661 0.488944
ltoes 11.0297
